# xmcd
#
# Track frame offsets: 
#        200
#        12782
#        25545
#        42795
#        56412
#        68545
#        82542
#        97497
#        110847
#        130075
#        145360
#        159960
#
# Disc length: 2304 seconds
#
# Revision: 0
# Processed by: cddbd v1.5.1PL0 Copyright (c) Steve Scherf et al.
# Submitted via: ExactAudioCopy v0.95a5
#
DISCID=8e08fe0c
DTITLE=Roanoke - Thoughts of Home
DYEAR=1996
DGENRE=Bluegrass
TTITLE0=A Hundred Years From Now (Hein and Royal)
TTITLE1=20/20 Vision (Joe Allison and Milton Estes)
TTITLE2=Take This Hammer (P.D.)
TTITLE3=Thought of Home (John Kael)
TTITLE4=I Hope You've Learned (Carrigan and Butler)
TTITLE5=Hit Parade of Love (Jimmy Martin and Wade Birchfield)
TTITLE6=Handmade Cross (John Kael)
TTITLE7=Cabin on a Mountain (Clyde Williamson and Cal Veale)
TTITLE8=I Only Exist (Joyce Morris and Jimmie Stanley)
TTITLE9=That Was You (John Kael)
TTITLE10=Are You Waiting Just For Me (Ernest Tubb)
TTITLE11=Who Will Sing For Me (Organ and Certain and Stacey)
EXTD=
EXTT0=
EXTT1=
EXTT2=
EXTT3=
EXTT4=
EXTT5=
EXTT6=
EXTT7=
EXTT8=
EXTT9=
EXTT10=
EXTT11=
PLAYORDER=
